HIERARCHY
ROOT hip
{
  OFFSET 0 0 0
  CHANNELS 6 Xposition Yposition Zposition Zrotation Yrotation Xrotation
  JOINT abdomen
  {
    OFFSET 0 20.6881 -0.73152
    CHANNELS 3 Zrotation Xrotation Yrotation
    JOINT chest
    {
      OFFSET 0 11.7043 -0.48768
      CHANNELS 3 Zrotation Xrotation Yrotation
      JOINT neck
      {
        OFFSET 0 22.1894 -2.19456
        CHANNELS 3 Zrotation Xrotation Yrotation
        JOINT head
        {
          OFFSET -0.24384 7.07133 1.2192
          CHANNELS 3 Zrotation Xrotation Yrotation
          JOINT leftEye
          {
            OFFSET 4.14528 8.04674 8.04672
            CHANNELS 3 Zrotation Xrotation Yrotation
            End Site
            {
              OFFSET 1 0 0
            }
          }
          JOINT rightEye
          {
            OFFSET -3.6576 8.04674 8.04672
            CHANNELS 3 Zrotation Xrotation Yrotation
            End Site
            {
              OFFSET 1 0 0
            }
          }
        }
      }
      JOINT rCollar
      {
        OFFSET -2.68224 19.2634 -4.8768
        CHANNELS 3 Zrotation Xrotation Yrotation
        JOINT rShldr
        {
          OFFSET -8.77824 -1.95073 1.46304
          CHANNELS 3 Zrotation Xrotation Yrotation
          JOINT rForeArm
          {
            OFFSET -28.1742 -1.7115 0.48768
            CHANNELS 3 Zrotation Xrotation Yrotation
            JOINT rHand
            {
              OFFSET -22.5879 0.773209 7.07136
              CHANNELS 3 Zrotation Xrotation Yrotation
              JOINT rThumb1
              {
                OFFSET -1.2192 -0.487915 3.41376
                CHANNELS 3 Zrotation Xrotation Yrotation
                JOINT rThumb2
                {
                  OFFSET -3.37035 -0.52449 3.41376
                  CHANNELS 3 Zrotation Xrotation Yrotation
                  End Site
                  {
                    OFFSET -1.78271 -1.18214 1.43049
                  }
                }
              }
              JOINT rIndex1
              {
                OFFSET -7.75947 0.938293 5.60832
                CHANNELS 3 Zrotation Xrotation Yrotation
                JOINT rIndex2
                {
                  OFFSET -2.54057 -0.884171 1.56538
                  CHANNELS 3 Zrotation Xrotation Yrotation
                  End Site
                  {
                    OFFSET -1.62519 -0.234802 1.16502
                  }
                }
              }
              JOINT rMid1
              {
                OFFSET -8.24714 1.18213 3.41376
                CHANNELS 3 Zrotation Xrotation Yrotation
                JOINT rMid2
                {
                  OFFSET -3.10165 -0.590103 1.0647
                  CHANNELS 3 Zrotation Xrotation Yrotation
                  End Site
                  {
                    OFFSET -2.48547 -0.328903 0.83742
                  }
                }
              }
              JOINT rRing1
              {
                OFFSET -8.82822 0.546677 1.51678
                CHANNELS 3 Zrotation Xrotation Yrotation
                JOINT rRing2
                {
                  OFFSET -2.60934 -0.819778 -0.0198488
                  CHANNELS 3 Zrotation Xrotation Yrotation
                  End Site
                  {
                    OFFSET -2.33842 -0.294052 0.168128
                  }
                }
              }
              JOINT rPinky1
              {
                OFFSET -8.27202 -0.0477905 -0.4584
                CHANNELS 3 Zrotation Xrotation Yrotation
                JOINT rPinky2
                {
                  OFFSET -1.82734 -0.647385 -0.700984
                  CHANNELS 3 Zrotation Xrotation Yrotation
                  End Site
                  {
                    OFFSET -1.69225 -0.51767 -0.607171
                  }
                }
              }
            }
          }
        }
      }
      JOINT lCollar
      {
        OFFSET 2.68224 19.2634 -4.8768
        CHANNELS 3 Zrotation Xrotation Yrotation
        JOINT lShldr
        {
          OFFSET 8.77824 -1.95073 1.46304
          CHANNELS 3 Zrotation Xrotation Yrotation
          JOINT lForeArm
          {
            OFFSET 28.1742 -1.7115 0.48768
            CHANNELS 3 Zrotation Xrotation Yrotation
            JOINT lHand
            {
              OFFSET 22.5879 0.773209 7.07136
              CHANNELS 3 Zrotation Xrotation Yrotation
              JOINT lThumb1
              {
                OFFSET 1.2192 -0.487915 3.41376
                CHANNELS 3 Zrotation Xrotation Yrotation
                JOINT lThumb2
                {
                  OFFSET 3.37035 -0.52449 3.41376
                  CHANNELS 3 Zrotation Xrotation Yrotation
                  End Site
                  {
                    OFFSET 1.78271 -1.18214 1.43049
                  }
                }
              }
              JOINT lIndex1
              {
                OFFSET 7.75947 0.938293 5.60832
                CHANNELS 3 Zrotation Xrotation Yrotation
                JOINT lIndex2
                {
                  OFFSET 2.54057 -0.884171 1.56538
                  CHANNELS 3 Zrotation Xrotation Yrotation
                  End Site
                  {
                    OFFSET 1.62519 -0.234802 1.16502
                  }
                }
              }
              JOINT lMid1
              {
                OFFSET 8.24714 1.18213 3.41376
                CHANNELS 3 Zrotation Xrotation Yrotation
                JOINT lMid2
                {
                  OFFSET 3.10165 -0.590103 1.0647
                  CHANNELS 3 Zrotation Xrotation Yrotation
                  End Site
                  {
                    OFFSET 2.48547 -0.328903 0.83742
                  }
                }
              }
              JOINT lRing1
              {
                OFFSET 8.82822 0.546677 1.51678
                CHANNELS 3 Zrotation Xrotation Yrotation
                JOINT lRing2
                {
                  OFFSET 2.60934 -0.819778 -0.0198488
                  CHANNELS 3 Zrotation Xrotation Yrotation
                  End Site
                  {
                    OFFSET 2.33842 -0.294052 0.168128
                  }
                }
              }
              JOINT lPinky1
              {
                OFFSET 8.27202 -0.0477905 -0.4584
                CHANNELS 3 Zrotation Xrotation Yrotation
                JOINT lPinky2
                {
                  OFFSET 1.82734 -0.647385 -0.700984
                  CHANNELS 3 Zrotation Xrotation Yrotation
                  End Site
                  {
                    OFFSET 1.69225 -0.51767 -0.607171
                  }
                }
              }
            }
          }
        }
      }
    }
  }
  JOINT rButtock
  {
    OFFSET -8.77824 4.35084 1.2192
    CHANNELS 3 Zrotation Xrotation Yrotation
    JOINT rThigh
    {
      OFFSET 0 -1.70687 -2.19456
      CHANNELS 3 Zrotation Xrotation Yrotation
      JOINT rShin
      {
        OFFSET 0 -36.8199 0.73152
        CHANNELS 3 Zrotation Xrotation Yrotation
        JOINT rFoot
        {
          OFFSET 0.73152 -45.1104 -5.12064
          CHANNELS 3 Zrotation Xrotation Yrotation
          End Site
          {
            OFFSET -1.1221 -3.69964 12.103
          }
        }
      }
    }
  }
  JOINT lButtock
  {
    OFFSET 8.77824 4.35084 1.2192
    CHANNELS 3 Zrotation Xrotation Yrotation
    JOINT lThigh
    {
      OFFSET 0 -1.70687 -2.19456
      CHANNELS 3 Zrotation Xrotation Yrotation
      JOINT lShin
      {
        OFFSET 0 -36.8199 0.73152
        CHANNELS 3 Zrotation Xrotation Yrotation
        JOINT lFoot
        {
          OFFSET -0.73152 -45.1104 -5.12064
          CHANNELS 3 Zrotation Xrotation Yrotation
          End Site
          {
            OFFSET 1.1221 -3.69964 12.103
          }
        }
      }
    }
  }
}
MOTION
Frames:	7
Frame Time:	0.03333
-3.3059 4.7099 0.5055999999999999 -178.612266 -55.331613 -171.582293 -49.389776 48.759777 39.87069 -166.994254 27.029742 -103.068996 146.888754 -2.32839 -3.893084 13.891331 -25.287858 -75.642012 -121.309775 0.751138 1.336005 -173.22746 3.358602 52.714904 -128.795114 30.30057 -27.879189 177.580193 -44.972589 177.417924 -12.486519 39.207569 93.67564 10.185386 -7.17125 -6.003841 -41.293839 69.40337 19.09683 170.659571 -0.437399 138.495616 126.991329 -31.511371 115.647021 -18.961332 54.089435 -152.41481 -28.551556 -49.832537 -141.802116 162.80354 0.638084 -10.249345 -84.184837 6.565876 143.952484 -14.817681 45.04396 139.885968 118.257772 61.650076 -161.101697 -62.863306 -34.901464 58.408232 61.237259 -14.709913 -111.077539 -157.847188 25.334166 49.303121 -178.074712 23.598183 -47.98907 -169.518272 -0.605834 -129.249243 173.190087 -11.184858 -96.781334 129.406599 -45.892793 -121.785019 -39.816287 66.231974 2.407079 31.241102 50.5733 93.065196 -30.283704 30.995515 -13.195371 -32.111965 72.663919 -21.590479 102.151134 10.337594 155.331233 -122.897607 25.256928 59.351975 40.038846 -36.282004 -59.465127 -14.138299 0.23074 -158.662515 -143.238055 61.111208 -40.472069 -156.117561 15.303698 -120.756935 -77.604656 -4.826823 64.650138 -44.388789 5.981806 1.62751 -70.104935 38.958978 -35.033851 85.38731 -41.765169 84.359067 96.971265 55.493229 74.737702 -140.24977 4.586494 -72.851628
-3.3796 4.211 0.4221 -177.014663 -46.08122 -174.206226 -29.750706 31.59533 -0.0 -173.925936 1.765678 -127.466505 150.3481 -4.628868 33.897525 -5.890658 -36.924847 -104.993558 -132.43819 0.340255 0.772149 170.686034 -6.664224 71.109699 76.918121 -41.411331 -161.751861 17.393289 -10.495197 14.809086 -81.753438 75.613237 168.625161 20.302516 -6.024185 -20.399535 -63.528651 68.353552 34.889853 163.92104 -32.300433 170.213572 90.096912 -48.743191 120.574743 155.156479 -38.38212 -100.076944 108.924143 74.084903 -70.540906 42.484379 20.237653 -152.787546 -90.946311 6.471327 99.78799 -39.868233 -8.287729 -157.214967 112.017371 66.581919 176.941064 -54.97838 -39.471345 73.10339 -146.863533 -26.279868 -48.746553 178.730888 -0.961659 -46.099381 -133.669182 19.974176 49.631508 52.472042 64.398959 -29.418847 177.332077 -42.960261 -111.503423 -17.282092 9.443676 -17.65422 4.34581 -66.074382 98.725261 -167.987679 -7.229665 -14.855986 48.305051 61.101844 -92.001421 2.286045 -16.111091 -24.035788 -64.585542 13.980626 33.017581 123.968132 16.573669 -56.931121 88.738652 14.643646 -103.534024 57.32578 -54.837486 -66.601829 -2.032566 8.014415 14.281312 37.575007 -43.550934 28.489902 73.181729 73.323742 -161.411054 81.609387 27.042433 2.254719 -43.147652 23.621757 -23.943937 47.216984 -66.423736 49.695051 108.371321 67.263972 27.045906 91.571235 69.951104 46.707924
-3.3841 4.6270999999999995 0.3283 -169.331511 -35.451742 -179.674715 -8.532501 36.678002 -35.075853 162.283876 7.150727 -156.58292 146.554043 0.326428 90.004886 -21.67433 -0.288164 -159.389332 -117.355256 1.665318 2.736232 -132.643435 5.332648 12.123977 55.097236 -9.961849 -174.161558 -144.610091 -28.462725 179.909753 67.217311 -1.458358 160.170878 134.259652 38.070932 179.913296 -3.637013 -32.449919 1.885503 -91.836635 4.761045 19.089729 154.087069 -62.982501 -175.43532 -7.979915 36.646856 -165.577726 92.784805 0.782966 -21.847494 -125.215938 72.384618 -41.078482 -119.614798 38.547511 -132.720592 -95.688848 -18.413786 -179.747755 -119.091498 -47.298813 -78.783323 19.874711 12.880475 -68.452865 -67.329508 31.602303 -66.572437 111.517931 39.14985 28.310155 86.320292 55.036867 102.661452 -128.130322 -44.401065 -87.742951 7.165119 8.651862 5.409598 -79.290127 -86.069001 -85.916402 23.151471 -66.73992 131.711317 0.378899 38.728445 -118.393706 -150.557296 35.79566 145.993108 38.985537 -25.120254 -40.98261 91.862792 7.493334 89.034034 -178.089645 48.686506 50.194791 -148.691472 50.951067 -141.440841 -97.156618 40.577199 -103.467194 75.475222 43.330234 37.040952 -75.803566 -5.29168 -24.243677 40.065317 73.112207 -105.377652 -169.216405 -15.270131 38.252621 32.263642 -0.248038 7.594636 -73.341293 -60.790807 104.637535 120.135283 -39.62076 37.880253 144.434498 -48.728321 147.673517
-3.3498 5.6303 0.1896 -164.654773 -28.886738 176.139599 14.315915 46.953069 160.750863 -141.182022 -3.083259 53.630206 131.849104 9.780129 179.655989 0.116448 27.9651 113.585385 -117.365936 7.056215 11.572842 -115.711979 1.142242 1.817694 116.23783 -55.988758 -112.14738 28.368901 24.29415 28.269223 179.235461 -33.088894 37.42234 104.525097 -28.523318 101.900098 -168.554779 45.670409 69.371654 -27.926315 11.006558 20.147117 145.923519 -68.045676 169.913601 -8.397707 36.475218 -172.140047 110.232606 32.716162 -15.945978 -124.617015 60.595032 -49.606543 -66.456891 2.443908 -157.976798 -71.993788 -27.233565 140.855277 -55.9741 -56.513464 -44.276103 -116.654908 37.074504 -104.574857 -168.077194 -51.941327 -33.340981 109.952546 -54.212549 -56.990619 175.929475 -2.308303 49.772364 -31.89193 -40.974184 18.863784 77.715426 48.597272 -39.321182 176.464058 -22.689792 -133.400598 -85.151838 48.166603 43.385806 82.943855 85.849697 63.191148 12.768337 25.045189 105.956735 116.435699 -41.148857 -129.547232 98.843009 -3.128867 70.760851 31.898026 -8.449617 144.880832 -129.855073 3.212327 -133.361984 71.105372 -72.930948 -113.508093 -18.582641 9.152876 -0.0 38.220562 -20.7882 -0.0 -35.788302 65.034359 70.639849 -2.06371 32.350313 -110.631698 58.943929 6.730556 23.981653 -83.283917 -49.476845 -0.0 140.858969 62.143421 -59.330789 -146.199419 65.18817 -12.90434
-3.3458 6.6811 -0.0236 -163.349094 -27.471187 174.230865 34.506367 52.042481 -41.084356 135.162014 18.054683 -122.425812 140.497998 -7.33016 79.339665 -24.015621 -11.530286 -127.266435 -134.454785 6.974159 16.518271 -129.700631 3.530203 7.510802 64.176332 -7.815829 -160.399838 -116.072089 -48.007535 -149.905021 34.239872 44.222725 -176.493231 137.465526 -9.774067 124.350523 73.026804 -50.51455 67.54483 -92.680978 20.773981 57.894365 -7.963953 -76.869504 21.544431 169.061237 -20.430182 -77.261206 107.456902 -5.086543 -45.34442 -57.759561 88.235021 -112.007865 70.632037 -5.182044 -34.576621 90.837862 -30.927906 171.330457 -6.62577 0.626766 -1.939372 -116.903728 -17.960216 -171.111982 -62.136729 42.706767 -65.493224 -88.142804 -24.142901 128.770683 4.511988 -23.346718 -126.573964 -61.864994 -58.616456 -6.121498 174.05936 11.712807 -103.722513 141.372593 -9.303764 -135.152128 13.037249 -33.495394 125.762539 -41.372902 -75.770331 159.826464 28.739007 16.526369 110.737993 -57.961138 20.23006 -13.956992 103.191462 -9.52581 81.448111 -115.608546 4.434102 48.20594 77.340482 23.34345 -118.684427 23.055038 -10.785367 -161.435276 70.199022 48.841221 41.55926 -77.934546 2.149198 -83.17317 -76.787027 46.590983 -5.862024 62.541997 -5.640995 1.031159 8.605551 7.192978 -12.213978 49.199506 -72.586642 156.852001 113.950209 0.739485 3.276631 -129.802791 54.626194 -24.931585
-3.4162999999999997 7.4353 -0.2976 -162.696524 -29.32503 173.313043 39.056021 47.207017 -47.874622 135.814827 21.244186 -123.983751 133.3481 -15.817147 13.691522 22.451346 -30.272095 -47.316765 -144.848776 5.586702 17.513891 -139.985488 4.369507 11.962566 76.62005 -20.53024 -152.391661 37.996633 24.819642 -10.846342 146.847209 2.722263 -14.452206 -78.33466 72.006876 33.683862 -160.644659 -5.627252 78.527218 18.82152 -40.973448 18.707809 178.861326 -19.007477 87.234692 174.104546 -36.141643 -70.646428 67.751132 -5.183501 -117.795572 35.835543 27.025761 162.182788 176.14604 13.590447 -88.365833 118.400108 -16.121368 -93.075561 136.577062 47.77063 -148.381771 -174.388762 28.413241 161.725586 -89.288096 27.332785 -42.558191 105.90699 7.095882 19.073851 -138.180317 -31.38311 61.356628 -13.493204 3.946901 44.14503 87.938327 62.024583 -25.605444 65.606085 -16.408084 15.11245 1.698903 -21.578651 105.699557 -175.99139 23.522571 26.998222 1.190262 7.039229 106.607663 -23.338907 24.557086 -43.601099 -95.719691 38.922747 96.149653 -89.27261 -26.919125 -146.384 -50.972412 -58.074123 -29.356395 -119.852795 -11.914032 103.855929 41.139066 30.920956 40.998895 -47.395455 -20.74528 -180.0 -81.588182 -55.038054 26.111144 -88.330758 -13.039028 12.619639 120.21501 46.228048 39.315779 -141.645226 -15.108159 -0.0 -170.922559 62.470109 -38.147782 -76.578335 53.284986 -88.853733
-3.5682 7.7743 -0.6022 -161.330174 -33.797985 172.518058 32.199241 41.023271 69.519216 178.920183 -42.264834 -21.778961 143.403687 -6.591147 99.846672 -37.902327 -10.836871 -139.749327 -143.968036 5.100189 15.595242 -137.918339 3.753877 9.738372 70.888425 -10.655637 -155.650454 30.607756 38.192719 -11.075294 -165.060316 -70.084168 26.265976 -143.172941 34.435804 113.265405 47.420496 -31.604596 -6.746703 -24.112773 -66.403489 -37.93226 -176.536183 -49.018313 100.702441 -59.08382 77.997097 -138.32591 -112.03843 15.252968 -67.970219 170.63105 43.839141 -42.174786 84.255767 18.862167 -132.210023 -113.688203 20.131717 30.231569 -69.928606 -66.631036 35.005962 -91.930524 35.269254 -75.588428 28.014782 6.305553 -126.857965 69.210917 10.956927 129.063202 -80.432335 -39.255865 97.136693 -25.282093 49.33281 68.921073 92.599243 68.253659 -29.989172 63.168166 -27.379102 37.468976 158.506491 56.453853 167.639438 1.366101 16.271231 134.735284 -72.72285 18.64683 88.826095 169.067735 7.640944 -95.942116 179.114783 15.477366 99.337377 -91.161368 -11.208297 134.309368 75.128566 -3.246777 166.652508 11.935146 -3.324685 -65.176611 26.226716 18.146164 33.373619 -18.616042 -27.540604 35.441868 78.786294 25.410666 -66.69496 -163.220785 17.297575 91.432212 82.545749 20.968876 28.567013 -114.952734 -43.940031 -180.0 -141.491012 -57.277659 151.901325 -136.277271 60.573474 -15.041374
